<svg width="19" height="16" viewBox="0 0 19 16" fill="none" xmlns="http://www.w3.org/2000/svg">
<path d="M5.79923 16C12.7662 16 16.5773 9.84279 16.5773 4.51261C16.5773 4.34031 16.5773 4.16555 16.5704 3.99326C17.3124 3.42035 17.9528 2.71105 18.4615 1.8986C17.7684 2.22455 17.034 2.43938 16.2819 2.5361C17.0741 2.03107 17.6674 1.23644 17.9515 0.299914C17.2073 0.770195 16.3927 1.10033 15.5435 1.27586C14.9725 0.62731 14.217 0.197664 13.3939 0.0534748C12.5709 -0.0907147 11.7262 0.0585995 10.9908 0.478289C10.2553 0.897978 9.67016 1.56462 9.3259 2.37495C8.98165 3.18529 8.89751 4.09409 9.08654 4.96059C7.58047 4.88004 6.1071 4.46273 4.76197 3.73572C3.41685 3.00871 2.23002 1.98825 1.27846 0.740506C0.795393 1.63041 0.64797 2.68305 0.86613 3.68468C1.08429 4.6863 1.65168 5.56182 2.45308 6.13345C1.85255 6.11169 1.26522 5.93969 0.738462 5.63132V5.6867C0.739497 6.61894 1.04228 7.5222 1.59562 8.24381C2.14897 8.96542 2.91894 9.46112 3.77539 9.64711C3.4503 9.74263 3.1145 9.79025 2.77731 9.78864C2.5396 9.78941 2.30236 9.76592 2.06885 9.71849C2.31091 10.521 2.78224 11.2226 3.41682 11.7251C4.05141 12.2276 4.81746 12.5058 5.60769 12.5208C4.26526 13.6454 2.607 14.2554 0.9 14.2524C0.599216 14.2538 0.298642 14.2353 0 14.197C1.73252 15.3751 3.74457 16.0007 5.79923 16Z" fill="#FBAE17"/>
</svg>
