<svg width="23" height="16" viewBox="0 0 23 16" fill="none" xmlns="http://www.w3.org/2000/svg">
<path d="M22.0327 2.35506C21.9053 1.90057 21.6572 1.4891 21.3146 1.16438C20.9623 0.829687 20.5306 0.590269 20.0602 0.468731C18.2995 0.00464905 11.2454 0.00464915 11.2454 0.00464915C8.30467 -0.0288091 5.36464 0.118349 2.44193 0.445292C1.97146 0.57581 1.54055 0.820577 1.1875 1.15782C0.840613 1.49159 0.589353 1.90317 0.458098 2.35412C0.142797 4.0527 -0.0103981 5.7774 0.000578633 7.50496C-0.0106718 9.23097 0.142147 10.9551 0.458098 12.6558C0.58654 13.1049 0.836863 13.5146 1.18469 13.8455C1.53252 14.1765 1.96566 14.4156 2.44193 14.5421C4.22607 15.0053 11.2454 15.0053 11.2454 15.0053C14.1899 15.0388 17.1337 14.8916 20.0602 14.5646C20.5306 14.4431 20.9623 14.2037 21.3146 13.869C21.657 13.5443 21.9049 13.1328 22.0318 12.6783C22.3553 10.9804 22.5126 9.25496 22.5015 7.52652C22.5258 5.79077 22.3687 4.05722 22.0327 2.35412V2.35506ZM9.00283 10.7151V4.29576L14.8718 7.5059L9.00283 10.7151Z" fill="#FBAE17"/>
</svg>
